<?xml version="1.0" standalone="no"?>
<!DOCTYPE svg PUBLIC "-//W3C//DTD SVG 20010904//EN"
 "http://www.w3.org/TR/2001/REC-SVG-20010904/DTD/svg10.dtd">
<svg version="1.0" xmlns="http://www.w3.org/2000/svg"
 width="500.000000pt" height="500.000000pt" viewBox="0 0 500.000000 500.000000"
 preserveAspectRatio="xMidYMid meet">
<metadata>
Created by potrace 1.14, written by Peter Selinger 2001-2017
</metadata>
<g transform="translate(0.000000,500.000000) scale(0.100000,-0.100000)"
fill="#000000" stroke="none">
<path d="M4894 4243 c-22 -37 -95 -146 -134 -203 -77 -111 -269 -315 -415
-441 -134 -115 -170 -145 -285 -229 -52 -38 -100 -74 -107 -80 -29 -24 -360
-242 -471 -310 -68 -41 -153 -94 -190 -117 -37 -24 -73 -43 -79 -43 -7 0 -13
-4 -13 -10 0 -5 -4 -10 -10 -10 -5 0 -34 -16 -64 -35 -30 -19 -57 -35 -60 -35
-2 0 -70 -38 -151 -85 -80 -47 -148 -85 -150 -85 -2 0 -36 -19 -77 -43 -40
-24 -109 -63 -153 -87 -44 -24 -82 -46 -85 -49 -3 -3 -27 -18 -55 -32 -59 -31
-88 -47 -345 -194 -107 -61 -202 -115 -210 -118 -8 -4 -35 -19 -60 -33 -175
-101 -414 -207 -462 -205 -10 1 -27 1 -38 2 -37 1 -53 42 -46 113 9 90 33 153
141 373 52 106 95 196 95 200 0 3 13 36 29 72 110 251 126 454 43 534 -73 70
-212 86 -407 47 -27 -6 -59 -12 -70 -14 -96 -19 -411 -92 -504 -117 -246 -65
-241 -62 -241 -109 0 -14 -11 -68 -24 -120 -13 -52 -27 -113 -31 -135 -3 -22
-19 -96 -34 -165 -16 -69 -41 -181 -56 -250 -14 -69 -37 -173 -51 -231 -13
-58 -24 -108 -24 -111 0 -3 21 1 48 9 203 63 599 161 719 178 12 2 36 6 54 10
17 4 56 8 85 10 67 3 104 -24 104 -77 0 -33 -47 -194 -74 -253 -8 -16 -34 -88
-59 -160 -25 -71 -53 -152 -63 -180 -69 -197 -122 -359 -130 -403 -3 -13 -11
-49 -19 -80 -30 -113 -9 -198 53 -220 49 -16 178 1 259 35 18 7 34 13 35 12
19 -6 386 169 577 275 46 25 85 46 86 46 2 0 46 25 99 55 52 30 99 55 105 55
5 0 11 4 13 8 3 8 39 29 158 95 30 16 62 35 70 42 8 7 22 15 30 19 8 4 24 12
35 19 11 7 120 73 243 147 123 74 231 140 240 145 82 48 148 90 150 97 2 4 8
8 13 8 7 0 184 109 214 132 6 5 57 38 115 75 58 38 110 71 115 76 6 4 66 46
135 93 128 88 393 283 434 319 12 11 45 38 72 60 183 150 368 331 487 476 97
119 106 131 166 227 122 196 191 379 236 632 13 72 21 400 11 400 -3 0 -13
-12 -22 -27z"/>
</g>
</svg>
